HIERARCHY
ROOT ZeroOut_JNT
{
  OFFSET 0 0 0
  CHANNELS 6 Xposition Yposition Zposition Zrotation Xrotation Yrotation
  JOINT SpineFinal_1_JNT
  {
    OFFSET 1.09941 64.002 -42.9966
    CHANNELS 6 Xposition Yposition Zposition Zrotation Xrotation Yrotation
    JOINT l_legIKClavicle_Root_JNT
    {
      OFFSET -2.64853 -0.810668 10.7015
      CHANNELS 6 Xposition Yposition Zposition Zrotation Xrotation Yrotation
      JOINT l_legBlendRoot_JNT
      {
        OFFSET 16.1374 0 0
        CHANNELS 6 Xposition Yposition Zposition Zrotation Xrotation Yrotation
        JOINT l_legBlendMiddle_JNT
        {
          OFFSET 27.0969 0 0
          CHANNELS 6 Xposition Yposition Zposition Zrotation Xrotation Yrotation
          JOINT l_legBlendEnd_JNT
          {
            OFFSET 24.8414 0 0
            CHANNELS 6 Xposition Yposition Zposition Zrotation Xrotation Yrotation
            JOINT l_legBlendTip_JNT
            {
              OFFSET 6.77858 0 0
              CHANNELS 6 Xposition Yposition Zposition Zrotation Xrotation Yrotation
              End Site
              {
                OFFSET 0 0 0
              }
            }
          }
        }
      }
    }
    JOINT SpineFinal_2_JNT
    {
      OFFSET -19.9136 -1.49144 0.993757
      CHANNELS 6 Xposition Yposition Zposition Zrotation Xrotation Yrotation
      JOINT SpineFinal_3_JNT
      {
        OFFSET -19.2001 3.24201 2.0363
        CHANNELS 6 Xposition Yposition Zposition Zrotation Xrotation Yrotation
        JOINT SpineFinal_4_JNT
        {
          OFFSET -19.1272 6.18264 0.824529
          CHANNELS 6 Xposition Yposition Zposition Zrotation Xrotation Yrotation
          JOINT SpineFinal_5_JNT
          {
            OFFSET -18.1852 7.21578 -1.20318
            CHANNELS 6 Xposition Yposition Zposition Zrotation Xrotation Yrotation
            JOINT SpineFinal_6_JNT
            {
              OFFSET -19.144 8.35871 0
              CHANNELS 6 Xposition Yposition Zposition Zrotation Xrotation Yrotation
              JOINT SpineFinal_7_JNT
              {
                OFFSET -16.3943 7.24542 0
                CHANNELS 6 Xposition Yposition Zposition Zrotation Xrotation Yrotation
                JOINT SpineFinal_8_JNT
                {
                  OFFSET -19.3877 2.40349 0
                  CHANNELS 6 Xposition Yposition Zposition Zrotation Xrotation Yrotation
                  JOINT head_JNT
                  {
                    OFFSET -13.796 -11.6756 0
                    CHANNELS 6 Xposition Yposition Zposition Zrotation Xrotation Yrotation
                    JOINT l_hornRoot_JNT
                    {
                      OFFSET -15.825 14.8229 15.3879
                      CHANNELS 6 Xposition Yposition Zposition Zrotation Xrotation Yrotation
                      JOINT l_hornMid_JNT
                      {
                        OFFSET 6.55118 0 0
                        CHANNELS 6 Xposition Yposition Zposition Zrotation Xrotation Yrotation
                        JOINT l_hornEnd_JNT
                        {
                          OFFSET 6.73503 0 0
                          CHANNELS 6 Xposition Yposition Zposition Zrotation Xrotation Yrotation
                          End Site
                          {
                            OFFSET 0 0 0
                          }
                        }
                      }
                    }
                    JOINT headJend_JNT
                    {
                      OFFSET 1.34858 -27.5886 0
                      CHANNELS 6 Xposition Yposition Zposition Zrotation Xrotation Yrotation
                      End Site
                      {
                        OFFSET -0.885571 -8.63314 -0.143146
                      }
                    }
                    JOINT r_hornRoot_JNT
                    {
                      OFFSET -15.825 14.8229 -15.3879
                      CHANNELS 6 Xposition Yposition Zposition Zrotation Xrotation Yrotation
                      JOINT r_hornMid_JNT
                      {
                        OFFSET -2.40814 5.46468 -2.69372
                        CHANNELS 6 Xposition Yposition Zposition Zrotation Xrotation Yrotation
                        JOINT r_hornEnd_JNT
                        {
                          OFFSET -2.40922 6.0083 -1.85921
                          CHANNELS 6 Xposition Yposition Zposition Zrotation Xrotation Yrotation
                          End Site
                          {
                            OFFSET 0 0 0
                          }
                        }
                      }
                    }
                    JOINT m_upLip_JNT
                    {
                      OFFSET 4.72477 -9.87974 0
                      CHANNELS 6 Xposition Yposition Zposition Zrotation Xrotation Yrotation
                      JOINT l_lipUpRoot_JNT
                      {
                        OFFSET 2.68891 -0.690234 4.02874
                        CHANNELS 6 Xposition Yposition Zposition Zrotation Xrotation Yrotation
                        JOINT l_lipUpEnd_JNT
                        {
                          OFFSET 0 0 -14.9226
                          CHANNELS 6 Xposition Yposition Zposition Zrotation Xrotation Yrotation
                          End Site
                          {
                            OFFSET 0 0 0
                          }
                        }
                      }
                      JOINT m_upLipRoot_JNT
                      {
                        OFFSET 0 0 3.94939
                        CHANNELS 6 Xposition Yposition Zposition Zrotation Xrotation Yrotation
                        JOINT m_upLipEnd_JNT
                        {
                          OFFSET 0 0 15.0019
                          CHANNELS 6 Xposition Yposition Zposition Zrotation Xrotation Yrotation
                          End Site
                          {
                            OFFSET 0 0 0
                          }
                        }
                      }
                      JOINT r_lipUpRoot_JNT
                      {
                        OFFSET -2.689 -0.690236 4.02875
                        CHANNELS 6 Xposition Yposition Zposition Zrotation Xrotation Yrotation
                        JOINT r_lipUpEnd_JNT
                        {
                          OFFSET 9.35075e-005 -0.000392738 14.9226
                          CHANNELS 6 Xposition Yposition Zposition Zrotation Xrotation Yrotation
                          End Site
                          {
                            OFFSET 0 0 0
                          }
                        }
                      }
                    }
                    JOINT m_DnLip_JNT
                    {
                      OFFSET 6.0207 -9.81639 0
                      CHANNELS 6 Xposition Yposition Zposition Zrotation Xrotation Yrotation
                      JOINT l_lipDn_JNT
                      {
                        OFFSET 2.71301 -0.162748 3.99146
                        CHANNELS 6 Xposition Yposition Zposition Zrotation Xrotation Yrotation
                        JOINT l_lipEnd_JNT
                        {
                          OFFSET 0 0 -14.9599
                          CHANNELS 6 Xposition Yposition Zposition Zrotation Xrotation Yrotation
                          End Site
                          {
                            OFFSET 0 0 0
                          }
                        }
                      }
                      JOINT m_dnLip_JNT
                      {
                        OFFSET 0 -0.0431035 3.99141
                        CHANNELS 6 Xposition Yposition Zposition Zrotation Xrotation Yrotation
                        JOINT m_dnLipEnd_JNT
                        {
                          OFFSET 0 0 14.9599
                          CHANNELS 6 Xposition Yposition Zposition Zrotation Xrotation Yrotation
                          End Site
                          {
                            OFFSET 0 0 0
                          }
                        }
                      }
                      JOINT r_lipDn_JNT
                      {
                        OFFSET -2.71301 -0.162761 3.99141
                        CHANNELS 6 Xposition Yposition Zposition Zrotation Xrotation Yrotation
                        JOINT r_lipDnEnd_JNT
                        {
                          OFFSET 0 0 14.9599
                          CHANNELS 6 Xposition Yposition Zposition Zrotation Xrotation Yrotation
                          End Site
                          {
                            OFFSET 0 0 0
                          }
                        }
                      }
                    }
                    JOINT l_lid_JNT
                    {
                      OFFSET -7.85698 -6.72885 9.63956
                      CHANNELS 6 Xposition Yposition Zposition Zrotation Xrotation Yrotation
                      End Site
                      {
                        OFFSET 0 0 0
                      }
                    }
                    JOINT r_lid_JNT
                    {
                      OFFSET -7.85684 -6.72882 -9.63956
                      CHANNELS 6 Xposition Yposition Zposition Zrotation Xrotation Yrotation
                      End Site
                      {
                        OFFSET 0 0 0
                      }
                    }
                  }
                }
              }
            }
            JOINT l_FwClavicleRoot_JNT
            {
              OFFSET -3.21476 -4.3187 6.08742
              CHANNELS 6 Xposition Yposition Zposition Zrotation Xrotation Yrotation
              JOINT l_FwLegBlendRoot_JNT
              {
                OFFSET 21.051 0 0
                CHANNELS 6 Xposition Yposition Zposition Zrotation Xrotation Yrotation
                JOINT l_FwLegBlendMiddle_JNT
                {
                  OFFSET 33.1145 0 0
                  CHANNELS 6 Xposition Yposition Zposition Zrotation Xrotation Yrotation
                  JOINT l_FwLegBlendTip_JNT
                  {
                    OFFSET 29.9221 0 0
                    CHANNELS 6 Xposition Yposition Zposition Zrotation Xrotation Yrotation
                    JOINT l_FwLegBlendEnd_JNT
                    {
                      OFFSET 9.62649 0 0
                      CHANNELS 6 Xposition Yposition Zposition Zrotation Xrotation Yrotation
                      End Site
                      {
                        OFFSET 0 0 0
                      }
                    }
                  }
                }
              }
            }
            JOINT r_FwClavicleRoot_JNT
            {
              OFFSET 1.57499 -4.64749 -6.47788
              CHANNELS 6 Xposition Yposition Zposition Zrotation Xrotation Yrotation
              JOINT r_FwLegBlendRoot_JNT
              {
                OFFSET 1.1653 -12.7157 -16.7361
                CHANNELS 6 Xposition Yposition Zposition Zrotation Xrotation Yrotation
                JOINT r_FwLegBlendMiddle_JNT
                {
                  OFFSET 16.2308 -5.97551 28.2387
                  CHANNELS 6 Xposition Yposition Zposition Zrotation Xrotation Yrotation
                  JOINT r_FwLegBlendTip_JNT
                  {
                    OFFSET 26.7017 -9.19239 -9.89204
                    CHANNELS 6 Xposition Yposition Zposition Zrotation Xrotation Yrotation
                    JOINT r_FwLegBlendEnd_JNT
                    {
                      OFFSET 4.44874 -7.74942 3.58114
                      CHANNELS 6 Xposition Yposition Zposition Zrotation Xrotation Yrotation
                      End Site
                      {
                        OFFSET 0 0 0
                      }
                    }
                  }
                }
              }
            }
          }
        }
      }
    }
    JOINT r_legIKClavicle_Root_JNT
    {
      OFFSET -4.94604 1.23737 -11.8565
      CHANNELS 6 Xposition Yposition Zposition Zrotation Xrotation Yrotation
      JOINT r_legBlendRoot_JNT
      {
        OFFSET 13.2848 -5.74129 -7.13912
        CHANNELS 6 Xposition Yposition Zposition Zrotation Xrotation Yrotation
        JOINT r_legBlendMiddle_JNT
        {
          OFFSET 14.815 16.9375 15.0957
          CHANNELS 6 Xposition Yposition Zposition Zrotation Xrotation Yrotation
          JOINT r_legBlendEnd_JNT
          {
            OFFSET 23.6904 -6.58016 -3.54465
            CHANNELS 6 Xposition Yposition Zposition Zrotation Xrotation Yrotation
            JOINT r_legBlendTip_JNT
            {
              OFFSET 1.47758 -6.16068 -2.41079
              CHANNELS 6 Xposition Yposition Zposition Zrotation Xrotation Yrotation
              End Site
              {
                OFFSET 0 0 0
              }
            }
          }
        }
      }
    }
    JOINT tailRoot_JNT
    {
      OFFSET 2.82533 14.5514 0
      CHANNELS 6 Xposition Yposition Zposition Zrotation Xrotation Yrotation
      JOINT tailMid_JNT
      {
        OFFSET 7.87756 0 0
        CHANNELS 6 Xposition Yposition Zposition Zrotation Xrotation Yrotation
        JOINT tailEnd_JNT
        {
          OFFSET 6.52588 0 0
          CHANNELS 6 Xposition Yposition Zposition Zrotation Xrotation Yrotation
          End Site
          {
            OFFSET 0 0 0
          }
        }
      }
    }
    JOINT l_shoulderBkRoot_JNT
    {
      OFFSET -9.30511 7.998 11.2048
      CHANNELS 6 Xposition Yposition Zposition Zrotation Xrotation Yrotation
      JOINT l_shoulderBkMid_JNT
      {
        OFFSET 0 2.004 0
        CHANNELS 6 Xposition Yposition Zposition Zrotation Xrotation Yrotation
        End Site
        {
          OFFSET 0 0 0
        }
      }
    }
    JOINT r_shoulderBkRoot_JNT
    {
      OFFSET -9.30514 7.99801 -11.2048
      CHANNELS 6 Xposition Yposition Zposition Zrotation Xrotation Yrotation
      JOINT r_shoulderBkMid_JNT
      {
        OFFSET 0 -3.9713 0
        CHANNELS 6 Xposition Yposition Zposition Zrotation Xrotation Yrotation
        End Site
        {
          OFFSET 0 0 0
        }
      }
    }
  }
}
MOTION
Frames:	3
Frame Time:	0.0416667
0 0 0 0 0 -0 1.45408e-015 76.887 -83.2241 -4.6021e-017 5.71469 90 4.17299 -0.734432 9.59625 8.24141 61.302 -67.9495 16.1374 -1.24117e-007 1.16873e-006 -26.9161 11.3008 102.834 27.0969 -2.6537e-007 -4.26326e-014 -8.27058e-018 2.98177e-016 -86.8224 24.8414 -3.99668e-007 5.68434e-014 -1.39265e-007 1.74256e-007 16.0471 6.77858 -5.32907e-015 0 -2.75869e-033 4.96962e-017 3.18055e-015 -19.5397 7.82741e-007 -4.56271e-015 47.6332 4.41391e-032 -0 -19.4076 1.98539 -3.88578e-015 -5.84101 7.94503e-031 -2.2414e-016 -18.5401 5.80111 5.88418e-015 -17.3747 -2.54444e-014 -1.16499e-014 -18.018 7.25644 -4.85916e-015 -24.0095 2.85247e-016 -7.88e-015 -19.144 8.35871 1.2898e-014 -34.8908 0.0346331 -1.10012e-014 -16.3943 7.24542 6.91114e-014 -27.145 7.08015e-015 -1.23107e-014 -19.3877 2.40349 7.12624e-015 -19.6325 -2.8779 -0.632945 -13.796 -11.6756 2.9754e-014 -11.4702 -7.95139e-016 -2.73329e-016 -15.825 14.8229 15.3879 101.773 2.59666 -24.2782 6.55118 1.7053e-013 7.10543e-015 1.66294 -7.5369 2.27757 6.73503 2.84217e-014 -5.68434e-014 3.18055e-015 7.95139e-016 3.18055e-015 1.34858 -27.5886 -1.33227e-014 92.7985 1.33683e-014 -1.70955e-014 -15.825 14.8229 -15.3879 -10.8666 1.9327 -4.56394 -2.40814 5.46468 -2.69372 1.59378 -7.57032 2.74284 -2.40922 6.0083 -1.85921 -7.95139e-016 -3.18055e-015 5.96354e-016 4.72477 -9.87974 0 92.7985 3.50417e-015 -90 4.31052 0.012849 3.96897 180 7.01671e-015 180 0 0 -14.9226 4.96962e-017 0 -1.19271e-015 0.0134199 -0.299989 3.98539 -9.93923e-017 0 3.97569e-016 -4.44089e-016 0 15.0019 -9.93923e-017 0 -0 -4.47448 -0.143412 3.93693 -9.93923e-017 0 3.97569e-016 9.35075e-005 -0.000392738 14.9226 -9.93923e-017 0 -0 6.0207 -9.81639 0 100.34 3.45138e-015 -90 2.71301 -0.162748 3.99146 180 7.01671e-015 -180 0 -1.42109e-014 -14.9599 1.98785e-016 0 -0 -4.44089e-016 -0.0431035 3.99141 -9.93923e-017 0 -0 0 1.42109e-014 14.9599 -1.98785e-016 -1.59028e-015 -3.97569e-016 -2.71301 -0.162761 3.99141 -9.93923e-017 0 -0 0 0 14.9599 -1.98785e-016 -1.59028e-015 -3.97569e-016 -7.85698 -6.72885 9.63956 34.106 19.9417 85.9622 -7.85684 -6.72882 -9.63956 -145.894 19.9417 85.9622 -10.8033 7.07644 6.72563 -52.9623 26.2636 -112.656 21.051 -6.12186e-007 1.93141e-006 73.0123 -62.4374 138.313 33.1145 8.3753e-007 -2.8019e-007 132.554 7.01671e-015 180 29.9221 7.10543e-015 1.06581e-014 32.4745 1.73626e-015 4.58913e-015 9.62649 2.13163e-014 1.06581e-014 29.859 -1.7467e-015 90 -8.78352 1.608 -6.72563 -103.812 9.36591 -17.9815 1.1653 -12.7157 -16.7361 77.7411 -58.7017 130.318 16.2308 -5.97551 28.2387 145.258 13.1264 139.254 26.7017 -9.19239 -9.89204 21.3128 49.1322 41.6714 4.44874 -7.74942 3.58114 29.859 -8.08068e-015 90 5.52025 0.163705 -9.59625 -16.4282 -9.24492 4.74387 13.2848 -5.74129 -7.13912 34.738 2.51919 37.3069 14.815 16.9375 15.0957 -23.3197 21.5734 -48.7353 23.6904 -6.58016 -3.54465 57.1194 6.08167 -54.7083 1.47758 -6.16068 -2.41079 -3.18055e-015 3.18055e-015 -7.95139e-015 2.82533 14.5514 -1.68115e-015 -2.68489 6.96754e-016 -5.17505e-015 7.87756 1.42109e-014 -4.05902e-015 1.69716 -1.82554e-015 2.30911e-016 6.52588 2.84217e-014 1.78758e-015 -5.53157 4.30356e-031 -0 -9.30511 7.998 11.2048 -6.8505 -4.18474e-016 -90 0 0 0 -1.10348e-032 0 -0 -9.30514 7.99801 -11.2048 173.149 4.18474e-016 -90 0 0 0 9.58645e-032 1.98785e-016 4.41391e-032 
0 0 0 0 0 -0 1.67551e-015 74.0731 -80.958 -2.35557e-021 0.0409698 90 3.69683 -0.963525 9.59625 4.15026 61.3051 -67.9451 16.1374 -2.66226e-007 1.37374e-006 -26.8527 10.2433 126.69 27.0969 -7.10543e-015 7.10543e-015 2.51239e-016 1.86081e-015 -105.379 24.8414 1.42109e-014 8.52651e-014 -9.67618e-007 1.12823e-006 7.52531 6.77858 -7.10543e-015 0 -2.48481e-017 0 -9.54166e-015 -19.5397 8.6273e-007 -4.78414e-015 52.6703 1.03451e-033 -1.72418e-034 -19.4076 1.98539 -3.88578e-015 -5.84101 4.47943e-031 -2.2414e-016 -18.5401 5.80111 5.88418e-015 -17.3747 -2.54444e-014 -1.16499e-014 -18.018 7.25644 -4.85916e-015 -20.4811 -2.00283e-016 -7.88282e-015 -19.144 8.35871 1.73912e-014 -35.8853 0.0346331 -1.09552e-014 -16.3943 7.24542 8.03455e-014 -25.6297 6.76023e-015 -1.24846e-014 -19.3877 2.40349 1.94254e-014 -22.8944 -2.86159 -0.71684 -13.796 -11.6756 2.73115e-014 -12.8968 3.97569e-016 3.72721e-017 -15.825 14.8229 15.3879 101.773 2.59666 -24.2782 6.55118 1.13687e-013 7.10543e-015 1.66294 -7.5369 2.27757 6.73503 2.84217e-014 -4.61853e-014 3.18055e-015 7.95139e-016 3.18055e-015 1.34858 -27.5886 -1.28786e-014 92.7985 1.32689e-014 -1.66979e-014 -15.825 14.8229 -15.3879 -10.8666 1.9327 -4.56394 -2.40814 5.46468 -2.69372 1.59378 -7.57032 2.74284 -2.40922 6.0083 -1.85921 -1.59028e-015 -1.59028e-015 5.96354e-016 4.72477 -9.87974 4.44089e-016 92.7985 3.50417e-015 -90 4.31052 0.012849 3.96897 -180 7.01671e-015 -180 0 0 -14.9226 -3.23025e-016 1.59028e-015 3.97569e-016 0.0134199 -0.299989 3.98539 4.96962e-016 7.95139e-016 -7.95139e-016 0 0 15.0019 3.97569e-016 1.59028e-015 -7.95139e-016 -4.47448 -0.143412 3.93693 4.96962e-016 7.95139e-016 -7.95139e-016 9.35075e-005 -0.000392738 14.9226 3.97569e-016 1.59028e-015 -7.95139e-016 6.0207 -9.81639 4.44089e-016 100.34 3.45138e-015 -90 2.71301 -0.162748 3.99146 -180 7.01671e-015 -180 -4.44089e-016 1.42109e-014 -14.9599 -0 0 3.97569e-016 -8.88178e-016 -0.0431035 3.99141 9.93923e-017 0 -3.97569e-016 -4.44089e-016 -2.84217e-014 14.9599 1.98785e-016 0 -3.97569e-016 -2.71301 -0.162761 3.99141 9.93923e-017 0 -3.97569e-016 -4.44089e-016 -1.42109e-014 14.9599 1.98785e-016 0 -3.97569e-016 -7.85698 -6.72885 9.63956 34.106 19.9417 85.9622 -7.85684 -6.72882 -9.63956 -145.894 19.9417 85.9622 -10.1904 5.90311 6.72563 -48.8365 26.2583 -112.652 21.051 -4.58553e-007 9.77221e-007 51.0338 -46.5556 120.202 33.1145 8.3753e-007 -2.8019e-007 115.007 -7.01671e-015 180 29.9221 0 1.42109e-014 14.3844 2.25064e-016 4.85159e-015 9.62649 1.95399e-014 7.10543e-015 29.859 -1.7467e-015 90 -7.4021 0.139306 -6.72563 -97.5571 9.39439 -17.9828 1.1653 -12.7157 -16.7361 88.8669 -54.2058 119.244 16.2308 -5.97551 28.2387 152.887 18.205 111.358 26.7017 -9.19239 -9.89204 22.585 48.0618 39.9324 4.44874 -7.74942 3.58114 29.859 -1.7467e-015 90 3.31531 -1.11919 -9.59625 -35.1126 -9.26654 4.75764 13.2848 -5.74129 -7.13912 85.2505 13.9999 34.5444 14.815 16.9375 15.0957 -64.1305 42.262 -26.5793 23.6904 -6.58016 -3.54465 66.4958 5.26591 -57.821 1.47758 -6.16068 -2.41079 0 3.18055e-015 -0 2.82533 14.5514 -1.6943e-015 9.21511 -3.85512e-016 -5.2067e-015 7.87756 -1.42109e-014 -4.18026e-015 5.36788 -1.80703e-015 3.47325e-016 6.52588 2.84217e-014 1.63758e-015 -11.908 1.32417e-031 1.41245e-030 -9.30511 7.998 11.2048 -6.8505 -4.18474e-016 -90 0 0 0 0 0 -0 -9.30514 7.99801 -11.2048 173.149 4.18474e-016 -90 0 0 0 -3.25526e-031 0 -4.41391e-032 
0 0 0 0 0 -0 3.82557e-015 69.2675 -78.3459 -2.86845e-017 -7.30189 90 2.92518 -1.25451 9.59625 -1.96202 61.2999 -67.9538 16.1374 -4.72066e-007 1.58359e-006 -26.9057 10.3846 138.371 27.0969 -7.10543e-015 -8.52651e-014 1.27621e-014 -4.02803e-015 -125.034 24.8414 1.42109e-014 2.84217e-014 -8.04881e-007 9.58745e-007 1.57566 6.77858 -3.55271e-015 -1.42109e-014 1.89576e-021 7.58303e-022 -3.18055e-015 -19.5397 9.36479e-007 -6.9342e-015 57.4895 4.41391e-032 4.41391e-032 -19.4076 1.98539 -3.88578e-015 -5.84101 3.97252e-031 -2.2414e-016 -18.5401 5.80111 5.88418e-015 -17.3747 -2.54444e-014 -1.16499e-014 -18.018 7.25644 -4.85907e-015 -16.1894 -7.89567e-016 -7.84558e-015 -19.144 8.35871 2.79667e-013 -36.1875 0.0346331 -1.09532e-014 -16.3943 7.24542 4.82493e-013 -24.9967 6.61114e-015 -1.25576e-014 -19.3877 2.40349 4.26173e-013 -24.4711 -2.84587 -0.797709 -13.796 -11.6756 2.84217e-014 -14.5078 -7.95139e-016 -3.35449e-016 -15.825 14.8229 15.3879 101.773 2.59666 -24.2782 6.55118 1.84741e-013 7.10543e-015 1.66294 -7.5369 2.27757 6.73503 4.26326e-014 -5.32907e-014 -4.41391e-032 7.95139e-016 3.18055e-015 1.34858 -27.5886 -1.33227e-014 92.7985 1.30452e-014 -1.70955e-014 -15.825 14.8229 -15.3879 -10.8666 1.9327 -4.56394 -2.40814 5.46468 -2.69372 1.59378 -7.57032 2.74284 -2.40922 6.0083 -1.85921 1.59028e-015 3.18055e-015 -9.93923e-016 4.72477 -9.87974 4.44089e-016 92.7985 3.50417e-015 -90 4.31052 0.012849 3.96897 180 7.01671e-015 180 8.88178e-016 1.42109e-014 -14.9226 2.23633e-016 3.97569e-016 -7.95139e-016 0.0134199 -0.299989 3.98539 -2.73329e-016 0 3.97569e-016 0 -1.42109e-014 15.0019 9.93923e-017 0 3.97569e-016 -4.47448 -0.143412 3.93693 -2.73329e-016 0 3.97569e-016 9.35075e-005 -0.000392738 14.9226 9.93923e-017 0 3.97569e-016 6.0207 -9.81639 4.44089e-016 100.34 3.45138e-015 -90 2.71301 -0.162748 3.99146 -180 7.01671e-015 -180 -4.44089e-016 0 -14.9599 1.98785e-016 3.18055e-015 -0 4.44089e-016 -0.0431035 3.99141 0 3.18055e-015 -0 -4.44089e-016 0 14.9599 0 3.18055e-015 -0 -2.71301 -0.162761 3.99141 0 3.18055e-015 -0 0 -1.42109e-014 14.9599 0 3.18055e-015 -0 -7.85698 -6.72885 9.63956 34.106 19.9417 85.9622 -7.85684 -6.72882 -9.63956 -145.894 19.9417 85.9622 -9.41806 4.08291 6.72563 -41.3657 26.2605 -112.654 21.051 -1.03456e-007 1.88709e-007 41.6622 -32.4453 114.161 33.1145 8.3753e-007 -2.8019e-007 92.8971 7.01671e-015 180 29.9221 -2.4869e-014 7.10543e-015 -12.8755 -2.025e-015 4.42998e-015 9.62649 2.13163e-014 7.10543e-015 29.859 -1.7467e-015 90 -5.53365 -1.61783 -6.72563 -87.8567 9.37258 -17.9831 1.1653 -12.7157 -16.7361 100.481 -51.339 107.645 16.2308 -5.97551 28.2387 156.847 18.7759 99.0694 26.7017 -9.19239 -9.89204 35.3685 31.2915 20.4216 4.44874 -7.74942 3.58114 29.859 -1.7467e-015 90 0.463754 -1.61382 -9.59625 -56.8434 -9.24999 4.74057 13.2848 -5.74129 -7.13912 71.2256 -0.18689 37.6447 14.815 16.9375 15.0957 -77.3192 44.8304 -17.5236 23.6904 -6.58016 -3.54465 63.3654 7.1143 -57.3532 1.47758 -6.16068 -2.41079 -0 0 6.36111e-015 2.82533 14.5514 -3.5233e-015 23.5755 -1.66408e-015 -4.94931e-015 7.87756 -1.42109e-014 -4.8075e-015 10.4826 -1.76882e-015 5.07005e-016 6.52588 -2.13163e-014 9.42039e-016 -17.9378 -8.82781e-031 -2.11868e-030 -9.30511 7.998 11.2048 -6.8505 -4.18474e-016 -90 0 0 0 8.82781e-032 0 -0 -9.30514 7.99801 -11.2048 173.149 4.18474e-016 -90 0 0 0 3.08973e-031 -1.59028e-015 -4.41391e-032 
